<?xml version="1.0" encoding="utf-8"?>
<!-- Generator: Adobe Illustrator 28.0.0, SVG Export Plug-In . SVG Version: 6.00 Build 0)  -->
<svg version="1.1" id="Capa_1" xmlns="http://www.w3.org/2000/svg" xmlns:xlink="http://www.w3.org/1999/xlink" x="0px" y="0px"
	 viewBox="0 0 612 394" style="enable-background:new 0 0 612 394;" xml:space="preserve">
<style type="text/css">
	.st0{fill:#FAFAFB;}
	.st1{fill:#FAFAFA;}
	.st2{fill:#F9F9F9;}
	.st3{fill:#FAF9FA;}
	.st4{fill:#F8F8F8;}
	.st5{fill:#F7F7F8;}
	.st6{fill:#030303;}
</style>
<g>
	<path class="st0" d="M406.93,71.5c-6.56,1.97-13,3.67-19.25,5.88c-2.97,1.05-2.63-1.41-3.22-2.46
		c-13.45-24.19-33.65-39.69-60.47-46.08c-50.37-12.01-101.03,21.49-109.82,72.38c-0.68,3.95-1.44,5.25-6.13,4.17
		c-20.31-4.7-39.32-1.52-56.28,11.2c-29.56,22.17-26.54,62.78,5.93,80.61c10.73,5.89,22.14,8.85,34.4,8.85
		c74.48-0.02,148.97-0.03,223.45,0.1c15.13,0.03,29.46-2.59,42.58-10.44c24.48-14.66,33.94-42.76,21.88-66.61
		c-8.79-17.37-23.75-26.98-42.47-30.93c-23.45-4.95-46-0.86-68.04,7.37c-13.59,5.07-26.37,11.84-39,18.93
		c-1.53,0.86-2.9,2.08-5.52,1.64c10.51-9.17,20.94-17.7,32.36-24.93c23.38-14.79,48.31-24.93,76.61-22.9
		c31.52,2.25,56.15,16.25,70.25,45.25c18.3,37.63,0.06,81.73-39.08,96.61c-11.06,4.2-22.45,6.1-34.2,6.1
		c-82.65,0-165.3,0.23-247.95-0.22c-26.08-0.14-48.42-10-64.58-31.3c-21.63-28.51-16.93-67.58,10.68-90.37
		c16.62-13.71,35.58-21.65,57.28-21.06c7.47,0.21,10.35-2.46,13.09-9.01c13.4-32.07,37.15-53.6,69.88-64.74
		c44.88-15.27,97.74,2.1,125.54,40.49C399.67,56.64,403.98,63.51,406.93,71.5z"/>
	<path class="st1" d="M148.91,354.56c0.1-28.81,0.33-57.61,0.15-86.42c-0.03-4.68,1.46-5.53,5.55-5.25
		c4.81,0.34,9.66,0.29,14.48,0.07c2.74-0.12,3.28,0.89,3.28,3.4c-0.06,40.47-0.05,80.95,0.03,121.42c0,2.56-0.64,3.78-3.33,3.37
		c-0.49-0.07-1-0.01-1.5,0c-24.96,0.34-21.61,0.28-33.9-17.55c-17.18-24.91-34.45-49.75-51.86-74.89c-1.35,1.69-0.81,3.55-0.81,5.19
		c-0.02,27.31-0.06,54.63,0.14,81.94c0.03,4-0.82,5.67-5.13,5.35c-4.97-0.37-9.99-0.2-14.98-0.05c-2.49,0.07-3.49-0.54-3.48-3.29
		c0.06-40.47,0.02-80.95-0.07-121.42c-0.01-2.48,0.53-3.87,3.28-3.48c0.33,0.05,0.67,0,1,0c26.01-0.02,21.76-1.5,35.53,18.36
		c17.05,24.58,33.79,49.38,50.66,74.09c0.29,0.25,0.57,0.49,0.86,0.74C148.84,355.63,148.88,355.09,148.91,354.56z"/>
	<path class="st2" d="M323.59,307.95c17.97-11.98,36.32-13.66,54.55-4.45c17.87,9.02,23.16,25.69,22.32,44.55
		c-1.19,26.72-19.96,44.52-48.4,45.81c-16.26,0.74-32.18-1.7-47.71-6.73c-2.87-0.93-3.84-2.33-3.83-5.28
		c0.08-38.65,0.07-77.3,0.01-115.95c0-2.61,0.53-3.83,3.46-4.05c5.14-0.38,10.28-1.05,15.33-2.06c3.8-0.76,4.37,0.63,4.33,4.03
		C323.5,278.32,323.59,292.8,323.59,307.95z M348.18,316.78c-7.49-0.39-14.76,2.27-21.71,6.1c-1.63,0.9-2.91,1.75-2.89,4.11
		c0.12,14.16,0.05,28.32-0.02,42.47c-0.01,2.05,0.34,3.24,2.67,3.93c9.28,2.75,18.62,3.66,28.09,1.39
		c15.9-3.8,24.42-16.83,22.27-33.89C374.65,325.48,364.4,316.58,348.18,316.78z"/>
	<path class="st3" d="M259.3,380.7c-13.5,11.76-28,15.83-44.37,11.22c-13.54-3.81-20.3-13.67-22.59-27.06
		c-1.5-8.77-0.83-17.62-0.89-26.44c-0.07-11.5,0.11-23-0.09-34.49c-0.05-3.15,0.85-4.02,3.91-3.85c4.65,0.26,9.34,0.28,13.99,0
		c3.71-0.23,5.09,0.62,5.01,4.79c-0.28,14.66-0.08,29.32-0.01,43.99c0.01,2.83,0.09,5.68,0.49,8.47
		c1.72,12.14,10.16,18.5,22.45,17.19c7.19-0.77,13.33-3.79,19.03-8.09c2.08-1.57,2.2-3.42,2.19-5.65
		c-0.05-18.66,0.05-37.32-0.14-55.98c-0.04-3.56,0.56-5.07,4.53-4.75c5.13,0.41,10.33,0.26,15.49,0.11
		c2.65-0.08,3.34,0.84,3.34,3.42c-0.05,27.99-0.01,55.98,0.1,83.98c0.01,2.76-0.76,3.8-3.66,3.65c-4.32-0.23-8.7-0.4-12.98,0.07
		c-4.84,0.53-6.18-1.6-5.81-5.87C259.39,384.13,259.3,382.84,259.3,380.7z"/>
	<path class="st1" d="M554.52,391.15c-9.34,0-17.48-0.1-25.61,0.06c-2.33,0.05-3.57-0.96-4.88-2.63c-7.19-9.14-14.48-18.2-22-27.63
		c-7.25,9.24-14.36,18.13-21.25,27.19c-1.68,2.21-3.37,3.15-6.19,3.07c-7.32-0.21-14.65-0.07-21.94-0.07
		c-0.88-1.82,0.72-2.48,1.44-3.38c10.53-13.1,20.96-26.28,31.78-39.14c2.59-3.08,1.86-4.76-0.26-7.34
		c-11.05-13.45-21.97-27.02-33.42-41.15c9.27,0,18,0.07,26.72-0.05c1.97-0.03,2.5,1.35,3.36,2.46c6.31,8.15,12.7,16.25,18.82,24.54
		c1.8,2.44,2.55,2.52,4.42,0.08c6.39-8.31,13.04-16.41,19.56-24.62c1.02-1.29,1.73-2.52,3.84-2.48c7.92,0.17,15.86,0.07,24.93,0.07
		c-11.56,13.99-22.27,27.26-33.38,40.17c-2.96,3.44-3.1,5.51-0.17,8.99C531.61,362.79,542.61,376.54,554.52,391.15z"/>
	<path class="st4" d="M415.01,345.91c0-13.82,0.11-27.65-0.08-41.47c-0.05-3.33,0.6-4.71,4.25-4.47c5.14,0.34,10.32,0.25,15.48,0.08
		c2.64-0.09,3.36,0.8,3.35,3.4c-0.09,27.98-0.11,55.96-0.01,83.93c0.01,3.19-1.11,3.94-4.06,3.81c-4.82-0.22-9.67-0.25-14.48,0.02
		c-3.38,0.19-4.53-0.76-4.48-4.34c0.21-13.65,0.09-27.31,0.09-40.97C415.05,345.91,415.03,345.91,415.01,345.91z"/>
	<path class="st5" d="M427.16,263.08c7.45,0.19,13.33,5.88,13.18,12.77c-0.15,6.96-6.16,12.32-13.71,12.22
		c-7.63-0.1-14.37-6.09-14.18-12.58C412.66,268.27,419.06,262.88,427.16,263.08z"/>
	<path class="st6" d="M148.91,354.56c-0.03,0.53-0.07,1.06-0.1,1.59c-0.29-0.25-0.57-0.49-0.86-0.74
		C148.27,355.13,148.59,354.85,148.91,354.56z"/>
</g>
</svg>
